<?xml version="1.0" encoding="UTF-8"?>
<svg id="_レイヤー_2" data-name="レイヤー 2" xmlns="http://www.w3.org/2000/svg" viewBox="0 0 200 53">
  <defs>
    <style>
      .cls-1 {
        fill: none;
      }

      .cls-2 {
        fill: #002044;
      }

      .cls-3 {
        fill: #fff;
      }
    </style>
  </defs>
  <g id="_メイン" data-name="メイン">
    <g>
      <rect class="cls-2" width="200" height="53"/>
      <g>
        <g>
          <path class="cls-3" d="M22.24,10.66v31.2h-1V10.66H10.32v-.91h22.85v.91h-10.93Z"/>
          <path class="cls-3" d="M49.06,40.11c-1.38,1.71-3.42,2.56-6.14,2.56-1.9,0-3.52-.49-4.85-1.47-1.33-.98-2.25-2.17-2.77-3.56l.86-.41c.6,1.36,1.5,2.46,2.68,3.29,1.18,.83,2.54,1.25,4.08,1.25,1.3,0,2.4-.22,3.31-.66,.91-.44,1.65-1.05,2.22-1.84,.57-.79,1-1.72,1.27-2.79,.27-1.07,.41-2.24,.41-3.51V9.75h1v23.35c0,2.96-.69,5.3-2.06,7.01Z"/>
          <path class="cls-3" d="M78.79,41.86l-9.7-16.19h-7.53v16.19h-1V9.75h8.89c1.18,0,2.37,.11,3.58,.32,1.21,.21,2.29,.61,3.24,1.2,.95,.59,1.73,1.4,2.34,2.43,.6,1.03,.91,2.36,.91,3.99,0,1.51-.29,2.77-.86,3.76-.57,1-1.32,1.81-2.22,2.43-.91,.62-1.91,1.07-3.02,1.34-1.1,.27-2.18,.41-3.24,.41l9.75,16.23h-1.13Zm-.27-24.17c0-1.39-.27-2.55-.82-3.47-.54-.92-1.26-1.65-2.15-2.18-.89-.53-1.92-.9-3.08-1.11-1.16-.21-2.35-.32-3.56-.32h-7.35v14.19h7.84c2.96,0,5.22-.62,6.78-1.86,1.56-1.24,2.34-2.99,2.34-5.26Z"/>
        </g>
        <g id="b">
          <g id="c">
            <g>
              <path class="cls-3" d="M97.2,15.93c-.04,.06-.09,.21-.16,.48-.41,1.47-.99,2.48-1.93,3.33-.71,.64-1.37,1.04-2.41,1.44-.11-.25-.18-.34-.38-.54,.69-.21,1.14-.41,1.73-.81,1.26-.84,1.98-1.93,2.42-3.65h-3.9c-.39,0-.61,0-.86,.04v-.62c.29,.04,.45,.05,.87,.05h3.77c.31,0,.36,0,.49-.06l.35,.34Z"/>
              <path class="cls-3" d="M100.4,17.85c-.32,0-.51,0-.69,.04v-.54c.2,.04,.32,.04,.68,.04h2.26v-.54c0-.28-.02-.41-.05-.57h.55c-.02,.14-.03,.25-.03,.42v.69h.75c.36,0,.49,0,.69-.04v.53c-.19-.03-.38-.04-.69-.04h-.74l.04,2.98c0,.35,0,.42,.04,.6h-.58c.02-.2,.02-.3,.02-.57v-2.32s0-.21,.01-.43c0,.02-.02,.04-.04,.08-.41,.87-1.51,1.85-2.88,2.59-.11-.19-.17-.26-.34-.41,.61-.27,1.17-.63,1.76-1.13,.51-.45,.88-.87,1.19-1.39h-1.96Z"/>
              <path class="cls-3" d="M109.91,16.72c-.02,.09-.03,.27-.03,.54-.02,1.28-.24,2.04-.76,2.7-.47,.59-1.04,.98-1.96,1.33-.11-.25-.17-.32-.35-.51,.62-.19,1.01-.38,1.4-.71,.81-.65,1.11-1.43,1.11-2.93,0-.22,0-.27-.03-.41h.62Zm3.03-.97c-.08,.1-.09,.12-.19,.31-.53,1.03-1.24,1.73-2.24,2.19-.11-.19-.18-.26-.38-.44,.54-.21,.85-.39,1.21-.73,.35-.33,.64-.71,.86-1.14h-4.36c-.42,0-.62,0-.91,.04v-.59c.26,.04,.48,.05,.91,.05h4.12c.34,0,.56-.02,.65-.05l.31,.37h0Z"/>
              <path class="cls-3" d="M120.22,15.93c-.04,.06-.09,.21-.16,.48-.41,1.47-.99,2.48-1.93,3.33-.71,.64-1.37,1.04-2.41,1.44-.11-.25-.18-.34-.38-.54,.69-.21,1.14-.41,1.73-.81,1.26-.84,1.98-1.93,2.42-3.65h-3.91c-.39,0-.61,0-.86,.04v-.62c.29,.04,.45,.05,.87,.05h3.77c.31,0,.36,0,.49-.06l.35,.34h0Z"/>
              <path class="cls-3" d="M123.07,20.42v.54h-.59c.02-.17,.03-.32,.03-.57v-4.17c0-.31,0-.41-.03-.6,.15,.01,.3,.02,.6,.02h4.09c.33,0,.42,0,.6-.02-.02,.19-.02,.28-.02,.6v4.15c0,.23,0,.43,.02,.59h-.58v-.54h-4.12Zm4.11-4.26h-4.11v3.77h4.11v-3.77Z"/>
              <path class="cls-3" d="M130.04,20.38c.6-.02,1.52-.26,2.23-.59,1.48-.66,2.51-1.79,3.13-3.41,.18,.24,.25,.31,.47,.45-.61,1.33-1.33,2.23-2.34,2.93-.79,.54-1.58,.85-2.86,1.14-.21,.04-.27,.06-.46,.12l-.17-.64h0Zm.49-4.76c.82,.52,1.3,.9,1.85,1.44l-.4,.48c-.55-.6-1.16-1.1-1.83-1.51l.38-.41h0Z"/>
              <path class="cls-3" d="M138.91,21.28c.03-.21,.04-.39,.04-.81v-4.76c0-.41-.01-.59-.04-.78h.66c-.03,.2-.04,.36-.04,.8v1.43c1.18,.42,2.07,.84,3.41,1.62l-.33,.57c-.72-.51-1.78-1.07-2.86-1.52-.11-.04-.17-.08-.24-.13h-.01c.02,.16,.03,.27,.03,.46v2.31c0,.43,0,.6,.04,.81h-.66Z"/>
              <path class="cls-3" d="M145.44,15.43c-.29,0-.45,0-.66,.04v-.52c.2,.03,.38,.04,.69,.04h1.25c.3,0,.45,0,.64-.04v.51c-.2-.02-.37-.03-.62-.03h-.48c-.11,.74-.24,1.23-.53,1.95h.96c.25,0,.34,0,.48-.02-.01,.17-.02,.28-.02,.61v2.37c0,.29,0,.45,.03,.64h-.48v-.38h-.95v.81h-.51c.03-.21,.04-.4,.04-.75v-1.7c0-.28,0-.51,.02-.86-.15,.35-.3,.59-.57,.94-.08-.22-.17-.35-.28-.46,.45-.51,.78-1.1,1.06-1.95,.14-.42,.2-.69,.26-1.21h-.33Zm.31,4.76h.95v-2.4h-.95v2.4Zm2.66-4.76c-.32,0-.52,.01-.75,.04v-.53c.18,.03,.41,.04,.78,.04h2.42c.34,0,.55-.01,.77-.04v.53c-.22-.04-.41-.04-.75-.04h-.19v2.12h.25c.36,0,.56,0,.77-.04v.54c-.21-.03-.42-.04-.77-.04h-.25v2.75c0,.29,.01,.54,.05,.82h-.59c.04-.29,.05-.51,.05-.82v-2.76h-1.27c-.08,1.71-.41,2.64-1.28,3.65-.14-.15-.26-.25-.45-.34,.81-.77,1.17-1.73,1.24-3.31h-.22c-.34,0-.53,0-.76,.04v-.54c.21,.03,.41,.04,.76,.04h.23v-2.13h-.07Zm.56,1.86v.26h1.25v-2.12h-1.25v1.86Z"/>
              <path class="cls-3" d="M156.52,18.49c.39,0,.58,0,.86-.04-.01,.17-.02,.33-.03,.68l-.03,1.56c0,.23,.08,.26,.68,.26,.54,0,.69-.04,.75-.18,.06-.16,.11-.61,.12-1.15,.19,.11,.28,.14,.5,.2-.12,1.54-.17,1.58-1.4,1.58-.94,0-1.13-.1-1.13-.61v-.04l.03-1.8h-1.43c-.12,.51-.3,.91-.6,1.27-.21,.27-.47,.5-.82,.74-.4,.27-.68,.41-1.27,.63-.09-.19-.15-.27-.34-.44,.68-.22,1.03-.38,1.47-.69,.56-.39,.89-.84,1.07-1.51h-1.21c-.4,0-.61,.01-.83,.04v-.54c.2,.03,.42,.04,.81,.04h1.32c.03-.23,.05-.48,.05-.64,0-.14,0-.27-.03-.41h.58c-.04,.16-.04,.2-.06,.49-.01,.19-.03,.38-.06,.57h1.01Zm-1.02-3.24c0-.23-.01-.38-.05-.55h.6c-.04,.17-.05,.31-.05,.55v.24h2.28c.28,0,.5,0,.78-.04-.02,.16-.03,.3-.03,.53v.39c0,.23,0,.38,.03,.54h-.51v-.98h-1.91v1.11c0,.09,.01,.13,.05,.15,.06,.03,.25,.05,.49,.05,.31,0,.56-.03,.62-.08,.08-.06,.12-.27,.13-.62,.19,.08,.28,.11,.46,.15-.04,.48-.1,.7-.23,.81-.14,.11-.45,.17-.99,.17-.81,0-1-.08-1-.42v-1.32h-.94c-.06,.41-.12,.6-.27,.85-.26,.45-.61,.75-1.21,.98-.18,.07-.33,.11-.71,.22-.08-.15-.15-.26-.29-.42,.82-.15,1.21-.31,1.54-.61,.29-.28,.42-.56,.47-1.01h-1.63v.98h-.51c.02-.18,.03-.31,.03-.54v-.38c0-.23,0-.37-.03-.53,.28,.03,.49,.04,.78,.04h2.12v-.24h0Z"/>
              <path class="cls-3" d="M162.01,15.79c0-.4,0-.45-.03-.71h.62c-.03,.22-.04,.37-.04,.71v1.12l3.12-.41c.29-.03,.31-.04,.44-.11l.38,.31c-.05,.08-.06,.1-.12,.22-.21,.44-.38,.72-.58,.98-.32,.41-.75,.81-1.3,1.2-.18-.2-.25-.25-.46-.37,.84-.5,1.4-1.08,1.74-1.78-.07,.01-.1,.02-.18,.04-.03,0-.04,0-.09,.01-1.07,.15-2.06,.28-2.93,.41v1.81c0,.71,.03,.87,.19,1.01s.48,.19,1.11,.19c.81,0,1.64-.1,2.23-.27l.04,.62c-.21,0-.25,.01-.46,.04-.78,.1-1.3,.14-1.82,.14-.87,0-1.32-.11-1.57-.36-.23-.25-.28-.48-.28-1.27v-1.85l-.93,.13c-.34,.05-.59,.09-.75,.13l-.07-.57h.11c.13,0,.4-.02,.66-.05l.98-.13v-1.19h0Z"/>
              <path class="cls-3" d="M168.41,20.38c.6-.02,1.52-.26,2.23-.59,1.48-.66,2.51-1.79,3.13-3.41,.18,.24,.25,.31,.47,.45-.61,1.33-1.33,2.23-2.34,2.93-.79,.54-1.58,.85-2.86,1.14-.21,.04-.27,.06-.46,.12l-.17-.64h0Zm.49-4.76c.82,.52,1.3,.9,1.85,1.44l-.4,.48c-.55-.6-1.16-1.1-1.83-1.51l.38-.41h0Z"/>
              <path class="cls-3" d="M178.86,14.88c-.07,.1-.16,.27-.27,.51-.07,.15-.15,.28-.24,.42,.07,0,.86-.02,2.37-.04,.19,0,.33-.03,.45-.08l.34,.34c-.08,.12-.09,.15-.22,.51-.53,1.43-1.21,2.53-2,3.3-.64,.61-1.4,1.11-2.42,1.58-.12-.23-.19-.31-.38-.48,.65-.25,1.07-.48,1.59-.84,.6-.41,.95-.73,1.33-1.21-.55-.5-1.11-.9-1.72-1.24l.35-.39c.65,.38,1.07,.68,1.7,1.19,.45-.68,.8-1.41,1.07-2.23l-2.68,.04c-.52,.84-1.07,1.43-1.83,2.04-.18-.2-.25-.25-.45-.37,.83-.6,1.46-1.3,1.96-2.19,.25-.45,.39-.78,.45-1.05l.61,.18h0Z"/>
              <path class="cls-3" d="M183.34,17.78c.22,.04,.43,.04,.95,.04h4.46c.57,0,.69,0,.93-.04v.62c-.25-.02-.42-.03-.94-.03h-4.45c-.56,0-.72,0-.95,.03v-.63Z"/>
              <path class="cls-3" d="M91.58,24.97c-.31,0-.4,0-.61,.04v-.51c.19,.04,.34,.04,.64,.04h1.17c.29,0,.45,0,.63-.04v.51c-.2-.02-.34-.03-.59-.03h-.38v1.8h.31c.22,0,.34,0,.51-.04v.48c-.18-.02-.32-.03-.51-.03h-.31v1.95c.38-.16,.51-.22,.9-.42l.03,.48c-.75,.37-.9,.43-2,.87-.18,.07-.22,.08-.31,.13l-.15-.54c.28-.06,.53-.14,1.06-.33v-2.14h-.41c-.21,0-.34,0-.51,.04v-.49c.17,.03,.28,.04,.51,.04h.4v-1.8h-.4Zm3,2.92c-.48,0-.74,0-.95,.03,.01-.13,.01-.21,.01-.28,0-.13,.01-.34,.01-.61v-1.63c0-.48-.01-.74-.04-.98,.23,.03,.47,.04,.99,.04h2.02c.54,0,.77,0,.98-.04-.02,.22-.03,.51-.03,.97v1.54c0,.5,0,.78,.03,.98-.28-.02-.48-.03-.92-.03h-.87v.88h1.13c.38,0,.54,0,.75-.04v.51c-.22-.03-.4-.04-.75-.04h-1.13v1.13h1.43c.37,0,.54,0,.75-.04v.51c-.22-.03-.4-.04-.77-.04h-3.43c-.37,0-.54,0-.76,.04v-.51c.2,.03,.36,.04,.73,.04h1.6v-1.13h-1.01c-.37,0-.54,0-.74,.04v-.51c.19,.03,.35,.04,.74,.04h1.01v-.88h-.78Zm-.46-3v1.09h1.24v-1.09h-1.24Zm0,1.5v1.08h1.24v-1.08h-1.24Zm1.7-.41h1.3v-1.09h-1.3v1.09Zm0,1.49h1.3v-1.08h-1.3v1.08Z"/>
              <path class="cls-3" d="M98.61,25.39c.18,.03,.31,.04,.59,.04h1.08c.31,0,.42,0,.58-.04v.48c-.15-.02-.27-.03-.53-.03h-1.13c-.27,0-.41,0-.59,.03v-.48h0Zm.71,5.66h-.48c.03-.19,.04-.42,.04-.76v-1.01c0-.3,0-.48-.04-.69,.21,.02,.31,.03,.53,.03h.84c.24,0,.38,0,.5-.03-.02,.19-.02,.28-.02,.65v1.02c0,.28,0,.46,.03,.62h-.45v-.28h-.96v.44h0Zm-.47-6.71c.18,.03,.31,.04,.56,.04h.79c.25,0,.38,0,.56-.04v.48c-.18-.02-.31-.03-.56-.03h-.79c-.23,0-.41,0-.56,.03v-.48Zm.04,2.13c.15,.02,.27,.03,.53,.03h.75c.25,0,.37,0,.52-.03v.47c-.19-.02-.28-.03-.52-.03h-.75c-.25,0-.37,0-.53,.03v-.47Zm0,1.07c.14,.02,.27,.03,.53,.03h.75c.26,0,.37,0,.52-.03v.48c-.19-.02-.28-.03-.52-.03h-.76c-.24,0-.38,0-.52,.03v-.48Zm.42,2.68h.97v-1.21h-.97v1.21Zm4.13-6.11c.25,.38,.57,.72,1.04,1.06,.45,.33,.82,.53,1.4,.75-.13,.15-.22,.28-.29,.47-.54-.28-.81-.43-1.15-.68-.56-.4-.85-.68-1.28-1.23-.36,.57-.64,.87-1.23,1.33-.31,.25-.54,.4-.86,.57-.09-.19-.18-.29-.31-.41,.58-.29,.92-.53,1.34-.93,.36-.34,.57-.61,.74-.94h.6Zm-1.8,4.86v1.28c0,.38,.01,.62,.04,.81h-.53c.03-.19,.04-.43,.04-.81v-2.37c0-.42,0-.58-.03-.82,.19,.03,.39,.04,.78,.04h2.66c.44,0,.64,0,.8-.04-.03,.25-.04,.43-.04,.78v2.55c0,.28-.06,.43-.22,.51-.08,.04-.24,.05-.47,.05-.19,0-.22,0-.36,0-.02-.24-.04-.31-.1-.46,.21,.03,.34,.04,.53,.04,.14,0,.18-.03,.18-.15v-1.39h-.89v1.08c0,.34,0,.61,.03,.81h-.48c.02-.2,.04-.45,.04-.81v-1.08h-.78v1.1c0,.41,0,.61,.04,.81h-.49c.02-.19,.04-.42,.04-.81v-1.1h-.81Zm.81-1.47h-.81v1.07h.81v-1.07Zm-.61-1.52c.18,.02,.38,.03,.69,.03h1.4c.31,0,.51,0,.68-.03v.48c-.2-.02-.38-.03-.68-.03h-1.4c-.31,0-.48,0-.69,.03v-.48Zm1.8,2.59v-1.07h-.78v1.07h.78Zm1.3,0v-1.07h-.89v1.07h.89Z"/>
              <path class="cls-3" d="M106.35,27.16c.19,.03,.31,.04,.6,.04h.4c.23,0,.39,0,.59-.04-.03,.23-.04,.43-.04,.81v1.51c.11,.25,.21,.37,.38,.49,.45,.33,.91,.42,2,.42,1.47,0,2.36-.04,3.09-.15-.11,.28-.13,.3-.18,.56-.68,.03-1.77,.05-2.67,.05-1.27,0-1.73-.08-2.23-.36-.25-.15-.44-.33-.64-.63-.34,.34-.54,.51-.91,.79-.12,.09-.19,.15-.3,.25l-.25-.51c.34-.15,.81-.5,1.24-.92v-1.86h-.51c-.26,0-.38,0-.57,.04v-.51h0Zm.46-2.9c.5,.46,.75,.74,1.24,1.35l-.39,.35c-.45-.64-.68-.91-1.2-1.4l.35-.31h0Zm2.18,.96c-.36,0-.57,0-.72,.04v-.48c.18,.02,.41,.04,.8,.04h1.34c0-.26-.01-.47-.05-.69h.54c-.04,.22-.05,.42-.05,.69h1.49c.38,0,.62-.01,.8-.04v.48c-.18-.03-.39-.04-.77-.04h-1.52v.61h1.28c.25,0,.4,0,.6-.03-.02,.18-.03,.31-.03,.52v1.54c0,.21,0,.33,.03,.5-.19-.02-.37-.03-.6-.03h-1.28v.63h1.55c.38,0,.6,0,.76-.04v.48c-.17-.03-.41-.04-.77-.04h-1.54v.15c0,.25,.01,.48,.05,.7h-.54c.04-.22,.05-.45,.05-.7v-.15h-1.35c-.32,0-.61,.01-.77,.04v-.48c.17,.03,.38,.04,.77,.04h1.35v-.63h-1.16c-.23,0-.41,0-.61,.03,.02-.18,.03-.3,.03-.5v-1.55c0-.2,0-.32-.03-.51,.18,.02,.35,.03,.6,.03h1.17v-.61h-1.42Zm.13,.99v.65h1.29v-.65s-1.29,0-1.29,0Zm0,1.02v.71h1.29v-.71s-1.29,0-1.29,0Zm1.72-.37h1.4v-.65h-1.4v.65Zm0,1.07h1.4v-.71h-1.4v.71Z"/>
              <path class="cls-3" d="M119,27.57h1.12c.38,0,.54,0,.72-.04v.45c-.22-.03-.44-.04-.72-.04h-2.93c-.13,0-.18,0-.51,.02,0-.16,.01-.28,.01-.58v-.81c0-.3,0-.51,.03-.78-.18,.31-.31,.47-.56,.71-.1-.16-.17-.23-.29-.33,.08-.07,.1-.08,.16-.14-.14-.01-.22-.01-.41-.01h-.15v1.55c.33-.14,.49-.21,.9-.41v.47c-.39,.19-.54,.25-.9,.4v2.45c0,.45-.19,.55-.92,.55-.08,0-.17,0-.34-.01,0-.19-.03-.3-.1-.48,.22,.03,.41,.05,.58,.05,.25,0,.31-.04,.31-.22v-2.15c-.14,.06-.33,.12-.55,.21-.17,.07-.25,.1-.34,.15l-.15-.52c.27-.04,.45-.09,1.04-.31v-1.73h-.38c-.23,0-.39,0-.57,.03v-.51c.2,.03,.35,.04,.57,.04h.37v-.66c0-.32-.01-.53-.05-.78h.58c-.04,.24-.05,.46-.05,.77v.67h.14c.25,0,.38,0,.52-.04v.38c.5-.53,.94-1.31,1.06-1.86l.48,.13s-.07,.17-.17,.38c-.05,.11-.1,.21-.19,.35h1.27c.19-.26,.29-.48,.4-.78l.47,.13c-.03,.05-.05,.09-.07,.12-.15,.26-.23,.4-.32,.53h1.02c.34,0,.52,0,.7-.04v.45c-.22-.02-.38-.03-.67-.03h-1.12v.51h.83c.38,0,.56,0,.74-.03v.41c-.16-.02-.38-.03-.74-.03h-.83v.51h.83c.38,0,.58,0,.74-.03v.41c-.18-.02-.39-.03-.74-.03h-.83v.53h0Zm-2.19,1.24c-.28,0-.41,0-.61,.04v-.49c.2,.03,.34,.04,.64,.04h2.08c.34,0,.51,0,.68-.02-.01,.05-.02,.08-.04,.15l-.04,.13s-.02,.09-.05,.2c-.06,.23-.07,.25-.1,.34h.8c.34,0,.51,0,.64-.03-.02,.1-.04,.19-.05,.29-.07,.43-.17,.84-.26,1.06-.16,.37-.34,.47-.84,.47-.28,0-.52-.01-.99-.07-.02-.19-.04-.31-.11-.48,.5,.09,.77,.12,1.08,.12,.25,0,.35-.05,.43-.22,.07-.16,.12-.39,.19-.75h-.91c-.3,0-.46,0-.6,.02,.11-.23,.19-.45,.27-.81h-1.13c-.2,1.25-.72,1.86-1.96,2.31-.12-.23-.17-.3-.29-.43,.58-.17,.99-.39,1.27-.7,.27-.29,.4-.6,.49-1.18h-.57Zm1.77-3.5h-1.44v.51h1.44v-.51Zm0,.87h-1.44v.51h1.44v-.51Zm-1.44,.87v.53h1.44v-.53h-1.44Z"/>
              <path class="cls-3" d="M122.42,24.87c-.29,0-.45,0-.66,.04v-.52c.2,.03,.38,.04,.69,.04h1.25c.3,0,.45,0,.64-.04v.51c-.2-.02-.37-.03-.62-.03h-.48c-.11,.74-.24,1.23-.53,1.95h.96c.25,0,.34,0,.48-.02-.01,.17-.02,.28-.02,.61v2.37c0,.29,0,.45,.03,.64h-.48v-.38h-.95v.81h-.51c.03-.21,.04-.4,.04-.75v-1.7c0-.28,0-.51,.02-.86-.15,.35-.3,.59-.57,.94-.08-.22-.17-.35-.28-.46,.45-.51,.78-1.1,1.06-1.95,.14-.42,.2-.69,.26-1.21h-.33Zm.31,4.76h.95v-2.4h-.95v2.4Zm2.66-4.76c-.32,0-.52,.01-.75,.04v-.53c.18,.03,.41,.04,.78,.04h2.42c.34,0,.55-.01,.77-.04v.53c-.22-.04-.41-.04-.75-.04h-.19v2.12h.25c.36,0,.56,0,.77-.04v.54c-.21-.03-.42-.04-.77-.04h-.25v2.75c0,.29,.01,.54,.05,.82h-.59c.04-.29,.05-.51,.05-.82v-2.75h-1.27c-.08,1.71-.41,2.64-1.28,3.65-.14-.15-.26-.25-.45-.34,.81-.77,1.17-1.73,1.24-3.31h-.22c-.34,0-.53,0-.76,.04v-.54c.21,.03,.41,.04,.76,.04h.23v-2.12h-.07Zm.56,1.86v.26h1.25v-2.12h-1.25v1.86Z"/>
              <path class="cls-3" d="M133.51,27.94c.39,0,.58,0,.86-.04-.01,.17-.02,.33-.03,.68l-.03,1.56c0,.23,.08,.26,.68,.26,.54,0,.69-.04,.75-.18,.06-.16,.11-.61,.12-1.15,.19,.11,.28,.14,.5,.2-.12,1.54-.17,1.58-1.4,1.58-.94,0-1.13-.1-1.13-.61v-.04l.03-1.8h-1.43c-.12,.51-.3,.91-.6,1.27-.21,.27-.47,.5-.82,.74-.4,.27-.68,.41-1.27,.63-.09-.19-.15-.27-.34-.44,.68-.22,1.03-.38,1.47-.69,.56-.39,.89-.84,1.07-1.51h-1.21c-.4,0-.61,.01-.83,.04v-.54c.2,.03,.42,.04,.81,.04h1.32c.03-.23,.05-.48,.05-.64,0-.14,0-.27-.03-.41h.58c-.04,.16-.04,.2-.06,.49-.01,.19-.03,.38-.06,.57h1.01Zm-1.02-3.24c0-.23-.01-.38-.05-.55h.6c-.04,.17-.05,.31-.05,.55v.24h2.28c.28,0,.5,0,.78-.04-.02,.16-.03,.3-.03,.53v.39c0,.23,0,.38,.03,.54h-.51v-.98h-1.91v1.11c0,.09,.01,.13,.05,.15,.06,.03,.25,.05,.49,.05,.31,0,.56-.03,.62-.08,.08-.06,.12-.27,.13-.62,.19,.08,.28,.11,.46,.15-.04,.48-.1,.7-.23,.81-.14,.11-.45,.17-.99,.17-.81,0-1-.08-1-.42v-1.32h-.94c-.06,.41-.12,.6-.27,.85-.26,.45-.61,.75-1.21,.98-.18,.07-.33,.11-.71,.22-.08-.15-.15-.26-.29-.42,.82-.15,1.21-.31,1.54-.61,.29-.28,.42-.56,.47-1.01h-1.63v.98h-.51c.02-.18,.03-.31,.03-.54v-.38c0-.23,0-.37-.03-.53,.28,.03,.49,.04,.78,.04h2.12v-.24h0Z"/>
              <path class="cls-3" d="M142.49,25.13c-.02-.08-.03-.15-.03-.22,0-.48,.39-.87,.87-.87s.87,.39,.87,.87-.39,.87-.87,.87c-.08,0-.16,0-.27-.04v.04c-.39,1.36-.88,2.33-1.58,3.05-.8,.84-1.66,1.4-2.79,1.82-.11-.24-.19-.34-.38-.53,1.03-.28,2.12-.96,2.81-1.74,.63-.71,1.07-1.61,1.34-2.73h-3.91c-.45,0-.63,.01-.86,.04v-.61c.28,.04,.45,.04,.87,.04h3.93Zm.29-.23c0,.31,.25,.55,.55,.55s.54-.25,.54-.55-.25-.54-.54-.54-.55,.25-.55,.54Z"/>
              <path class="cls-3" d="M146.09,29.86v.54h-.59c.02-.17,.03-.32,.03-.57v-4.17c0-.31,0-.41-.03-.6,.15,.01,.3,.02,.6,.02h4.09c.33,0,.42,0,.6-.02-.02,.19-.02,.28-.02,.6v4.15c0,.23,0,.43,.02,.59h-.58v-.54h-4.12Zm4.11-4.27h-4.11v3.77h4.11v-3.77Z"/>
              <path class="cls-3" d="M153.34,26.45c.67,.27,1.34,.61,1.95,1l-.3,.52c-.45-.35-1.33-.83-1.96-1.05l.31-.47Zm-.2,3.51h.04c.44,0,1.3-.2,2.02-.48,1.48-.54,2.67-1.81,3.22-3.44,.19,.2,.28,.28,.48,.41-.97,2.33-2.55,3.53-5.31,4.05-.17,.04-.19,.04-.3,.08l-.15-.63Zm.8-5.34c.7,.28,1.3,.59,1.9,.97l-.31,.51c-.43-.34-1.45-.89-1.89-1.02l.3-.46Zm4.02-.35c.34,.41,.55,.74,.78,1.19l-.38,.23c-.19-.41-.56-.98-.78-1.22l.38-.2h0Zm.86-.41c.35,.42,.54,.71,.8,1.19l-.38,.22c-.17-.36-.49-.86-.79-1.21l.38-.21h0Z"/>
              <path class="cls-3" d="M163.72,30.02h1.64c.36,0,.5,0,.69-.04v.54c-.19-.02-.38-.03-.7-.03h-3.71c-.33,0-.51,0-.7,.03v-.54c.2,.04,.32,.04,.69,.04h1.56v-2.65h-1.1c-.34,0-.51,0-.68,.03v-.54c.19,.03,.38,.04,.68,.04h2.8c.31,0,.5-.01,.68-.04v.54c-.21-.03-.27-.03-.68-.03h-1.18v2.65h0Z"/>
              <path class="cls-3" d="M171.22,24.4c-.05,.07-.1,.17-.17,.31-.2,.41-.27,.54-.35,.68,.07-.02,.84-.04,2.32-.06,.27,0,.29,0,.4-.05l.33,.32c-.07,.09-.07,.1-.15,.38-.32,1.08-.88,2.12-1.54,2.89-.71,.81-1.55,1.41-2.67,1.92-.12-.22-.19-.3-.38-.45,1.16-.48,1.97-1.06,2.71-1.94,.59-.71,1.05-1.61,1.32-2.57l-2.59,.04c-.47,.75-1.08,1.43-1.83,2-.13-.19-.21-.26-.43-.4,.81-.53,1.4-1.17,1.93-2.1,.29-.51,.45-.85,.48-1.12l.63,.16h0Z"/>
              <path class="cls-3" d="M177.27,30.73c.03-.21,.04-.39,.04-.81v-4.76c0-.41-.01-.59-.04-.78h.66c-.03,.2-.04,.36-.04,.8v1.43c1.18,.42,2.07,.84,3.41,1.62l-.33,.57c-.72-.51-1.78-1.07-2.86-1.52-.11-.04-.17-.08-.24-.13h-.01c.02,.16,.03,.27,.03,.46v2.31c0,.43,0,.6,.04,.81h-.66Z"/>
            </g>
            <g>
              <path class="cls-3" d="M91.17,36.89h-.25v-2.5h1.51v.23h-1.25v.86h1.17v.23h-1.17v1.19h0Z"/>
              <path class="cls-3" d="M94.54,36.06c0,.13-.02,.24-.07,.35-.04,.1-.1,.2-.18,.28-.08,.08-.17,.14-.28,.18-.11,.04-.23,.07-.36,.07s-.25-.02-.35-.07-.2-.1-.28-.18-.14-.17-.18-.28-.07-.22-.07-.35,.02-.24,.07-.35c.04-.1,.1-.2,.18-.28,.08-.08,.17-.14,.28-.18,.11-.04,.23-.07,.35-.07s.25,.02,.36,.07c.11,.04,.2,.1,.28,.18s.14,.17,.18,.28,.07,.22,.07,.35Zm-.25,0c0-.09-.01-.18-.04-.26-.03-.08-.07-.15-.13-.21s-.12-.11-.2-.14-.16-.05-.26-.05-.18,.02-.26,.05-.14,.08-.2,.14c-.05,.06-.1,.13-.13,.21s-.04,.17-.04,.26,.01,.18,.04,.26c.03,.08,.07,.15,.13,.21,.05,.06,.12,.11,.2,.14s.16,.05,.26,.05,.18-.02,.26-.05,.14-.08,.2-.14c.05-.06,.1-.13,.13-.21s.04-.17,.04-.26Z"/>
              <path class="cls-3" d="M95.05,35.42c0-.07,0-.13-.01-.19h.23s0,.1,.01,.15c0,.05,0,.1,0,.13h0c.05-.1,.12-.17,.21-.24,.09-.06,.2-.09,.32-.09,.03,0,.06,0,.08,0,.02,0,.05,0,.07,.01l-.03,.23s-.04,0-.07-.01c-.03,0-.07,0-.1,0-.06,0-.13,.01-.18,.04-.06,.02-.11,.06-.15,.11-.04,.05-.08,.11-.1,.19-.03,.08-.04,.17-.04,.28v.85h-.24v-1.29s0-.1,0-.17h0Z"/>
              <path class="cls-3" d="M97.83,36.01v.05s0,.04,0,.06h-1.37c0,.08,.02,.16,.05,.23,.03,.07,.07,.14,.13,.19,.05,.05,.12,.1,.19,.13,.07,.03,.15,.05,.24,.05,.13,0,.23-.03,.32-.09s.16-.13,.21-.2l.18,.14c-.1,.13-.21,.22-.33,.27-.12,.05-.25,.08-.38,.08-.12,0-.24-.02-.34-.07-.1-.04-.19-.1-.27-.18s-.13-.17-.18-.28-.07-.22-.07-.35,.02-.24,.06-.35c.04-.1,.1-.2,.18-.28,.07-.08,.16-.14,.27-.18s.21-.07,.33-.07c.13,0,.25,.02,.34,.07s.18,.1,.25,.18,.12,.16,.15,.26,.05,.21,.05,.32h0Zm-.25-.07c0-.16-.06-.28-.15-.39-.09-.1-.22-.15-.4-.15-.08,0-.16,.01-.22,.04-.07,.03-.13,.07-.18,.12s-.09,.11-.12,.17-.05,.13-.05,.2h1.13Z"/>
              <path class="cls-3" d="M99.05,35.44h-.39v1.45h-.24v-1.45h-.35v-.2h.35v-.45c0-.19,.04-.34,.14-.45s.23-.16,.42-.16c.03,0,.06,0,.1,0s.07,0,.1,.02l-.04,.21s-.05-.01-.08-.02-.06,0-.09,0c-.06,0-.12,.01-.16,.03-.04,.02-.07,.05-.1,.09-.02,.04-.04,.08-.04,.13,0,.05-.01,.11-.01,.17v.42h.39v.2h0Z"/>
              <path class="cls-3" d="M99.39,35.42c0-.07,0-.13-.01-.19h.23s0,.1,.01,.15c0,.05,0,.1,0,.13h0c.05-.1,.12-.17,.21-.24,.09-.06,.2-.09,.32-.09,.03,0,.06,0,.08,0,.02,0,.05,0,.07,.01l-.03,.23s-.04,0-.07-.01c-.03,0-.07,0-.1,0-.06,0-.13,.01-.18,.04-.06,.02-.11,.06-.15,.11-.04,.05-.08,.11-.1,.19-.03,.08-.04,.17-.04,.28v.85h-.24v-1.29s0-.1,0-.17h0Z"/>
              <path class="cls-3" d="M102.31,36.06c0,.13-.02,.24-.07,.35-.04,.1-.1,.2-.18,.28-.08,.08-.17,.14-.28,.18s-.23,.07-.36,.07-.25-.02-.35-.07-.2-.1-.28-.18-.14-.17-.18-.28-.07-.22-.07-.35,.02-.24,.07-.35c.04-.1,.1-.2,.18-.28,.08-.08,.17-.14,.28-.18s.23-.07,.35-.07,.25,.02,.36,.07c.11,.04,.2,.1,.28,.18s.14,.17,.18,.28,.07,.22,.07,.35Zm-.25,0c0-.09-.01-.18-.04-.26-.03-.08-.07-.15-.13-.21-.05-.06-.12-.11-.2-.14s-.16-.05-.26-.05-.18,.02-.26,.05-.14,.08-.2,.14c-.05,.06-.1,.13-.13,.21s-.04,.17-.04,.26,.01,.18,.04,.26c.03,.08,.07,.15,.13,.21,.05,.06,.12,.11,.2,.14s.16,.05,.26,.05,.18-.02,.26-.05,.14-.08,.2-.14c.05-.06,.1-.13,.13-.21s.04-.17,.04-.26Z"/>
              <path class="cls-3" d="M103.04,35.24s0,.1,.01,.15c0,.05,0,.1,0,.13h0c.05-.1,.12-.17,.23-.24,.1-.06,.22-.09,.34-.09,.21,0,.37,.06,.47,.19,.1,.13,.16,.29,.16,.49v1.01h-.24v-.92c0-.09,0-.17-.02-.24s-.04-.13-.07-.18-.08-.09-.14-.12c-.06-.03-.13-.04-.22-.04-.06,0-.13,.01-.19,.04s-.11,.07-.16,.12-.08,.12-.11,.2c-.03,.08-.04,.18-.04,.29v.85h-.24v-1.29s0-.1,0-.17c0-.07,0-.13-.01-.19h.23Z"/>
              <path class="cls-3" d="M105.62,35.44h-.47v.97c0,.06,0,.11,.02,.15,.01,.04,.03,.07,.05,.09s.05,.04,.08,.04c.03,0,.06,.01,.1,.01,.03,0,.07,0,.1-.01,.04,0,.07-.02,.1-.04v.21s-.07,.03-.12,.04c-.04,0-.1,.01-.15,.01-.04,0-.09,0-.14-.02s-.1-.03-.14-.07-.08-.08-.1-.13c-.03-.06-.04-.13-.04-.22v-1.03h-.34v-.2h.34v-.47h.24v.47h.47v.2h0Z"/>
              <path class="cls-3" d="M107.15,36.89h-.25v-2.5h.74c.12,0,.24,.01,.34,.04s.19,.06,.27,.11c.08,.05,.13,.12,.18,.21,.04,.08,.06,.19,.06,.31,0,.09-.02,.18-.05,.25-.03,.07-.08,.14-.13,.2-.06,.06-.12,.1-.2,.13s-.16,.05-.25,.06l.73,1.19h-.31l-.69-1.17h-.42v1.17Zm0-1.39h.44c.21,0,.36-.04,.47-.11,.11-.07,.17-.19,.17-.34,0-.08-.01-.15-.04-.21-.03-.06-.07-.1-.13-.14-.05-.04-.12-.06-.2-.08-.08-.02-.16-.02-.26-.02h-.45v.89h0Z"/>
              <path class="cls-3" d="M110.51,36.01v.05s0,.04,0,.06h-1.37c0,.08,.02,.16,.05,.23,.03,.07,.07,.14,.13,.19,.05,.05,.12,.1,.19,.13,.07,.03,.15,.05,.24,.05,.13,0,.23-.03,.32-.09s.16-.13,.21-.2l.18,.14c-.1,.13-.21,.22-.33,.27-.12,.05-.25,.08-.38,.08-.12,0-.24-.02-.34-.07s-.19-.1-.27-.18-.13-.17-.18-.28c-.04-.1-.07-.22-.07-.35s.02-.24,.06-.35c.04-.1,.1-.2,.18-.28,.07-.08,.16-.14,.27-.18s.21-.07,.33-.07c.13,0,.25,.02,.34,.07,.1,.04,.18,.1,.25,.18s.12,.16,.15,.26,.05,.21,.05,.32h0Zm-.25-.07c0-.16-.06-.28-.15-.39-.09-.1-.22-.15-.4-.15-.08,0-.16,.01-.22,.04-.07,.03-.13,.07-.18,.12s-.09,.11-.12,.17-.05,.13-.05,.2h1.13Z"/>
              <path class="cls-3" d="M111.9,35.63c-.04-.07-.09-.13-.16-.17-.07-.04-.15-.07-.25-.07-.04,0-.08,0-.13,.01-.04,0-.08,.02-.11,.04s-.06,.05-.08,.08c-.02,.03-.03,.07-.03,.12,0,.08,.03,.14,.1,.18s.16,.07,.3,.1c.19,.04,.34,.1,.43,.17,.09,.08,.14,.18,.14,.31,0,.1-.02,.17-.05,.24s-.08,.12-.14,.16c-.06,.04-.13,.07-.2,.09-.07,.02-.15,.03-.22,.03-.13,0-.25-.03-.37-.08s-.22-.13-.29-.25l.19-.14c.04,.07,.1,.13,.19,.18,.08,.05,.17,.07,.27,.07,.05,0,.1,0,.15-.01,.05,0,.09-.03,.12-.05s.06-.05,.08-.09,.03-.08,.03-.13c0-.09-.04-.15-.13-.2s-.2-.08-.36-.12c-.05-.01-.1-.03-.16-.04-.06-.02-.11-.04-.15-.08-.05-.03-.09-.08-.12-.13s-.04-.12-.04-.19c0-.08,.02-.16,.05-.22,.03-.06,.08-.11,.13-.15s.12-.07,.19-.09c.07-.02,.14-.03,.22-.03,.12,0,.23,.03,.34,.08,.11,.05,.19,.13,.25,.22l-.18,.14h0Z"/>
              <path class="cls-3" d="M114.1,36.01v.05s0,.04,0,.06h-1.37c0,.08,.02,.16,.05,.23,.03,.07,.07,.14,.13,.19,.05,.05,.12,.1,.19,.13,.07,.03,.15,.05,.24,.05,.13,0,.23-.03,.32-.09s.16-.13,.21-.2l.18,.14c-.1,.13-.21,.22-.33,.27-.12,.05-.25,.08-.38,.08-.12,0-.24-.02-.34-.07s-.19-.1-.27-.18-.13-.17-.18-.28-.07-.22-.07-.35,.02-.24,.06-.35c.04-.1,.1-.2,.18-.28,.07-.08,.16-.14,.27-.18s.21-.07,.33-.07c.13,0,.25,.02,.34,.07s.18,.1,.25,.18,.12,.16,.15,.26,.05,.21,.05,.32h0Zm-.25-.07c0-.16-.06-.28-.15-.39-.09-.1-.22-.15-.4-.15-.08,0-.16,.01-.22,.04-.07,.03-.13,.07-.18,.12s-.09,.11-.12,.17c-.03,.07-.05,.13-.05,.2h1.13Z"/>
              <path class="cls-3" d="M115.66,35.82c0-.14-.04-.25-.11-.32-.07-.07-.19-.1-.33-.1-.1,0-.19,.02-.28,.05s-.16,.08-.22,.14l-.13-.16c.07-.07,.16-.13,.27-.17s.24-.07,.38-.07c.09,0,.17,.01,.25,.04,.08,.02,.15,.06,.21,.11,.06,.05,.1,.11,.14,.19,.03,.07,.05,.16,.05,.27v.72c0,.06,0,.13,0,.2s.01,.13,.02,.17h-.22s-.01-.08-.02-.13,0-.09,0-.14h0c-.07,.11-.16,.19-.26,.24s-.21,.07-.34,.07c-.06,0-.13,0-.2-.03-.07-.02-.13-.05-.18-.09-.06-.04-.1-.09-.14-.16s-.05-.14-.05-.23c0-.13,.03-.23,.1-.3,.07-.07,.15-.13,.26-.17,.11-.04,.23-.06,.37-.07s.28-.01,.44-.01v-.05h0Zm-.07,.24c-.1,0-.2,0-.3,.01-.1,0-.19,.02-.27,.05s-.15,.06-.2,.11c-.05,.05-.08,.11-.08,.19,0,.06,.01,.11,.03,.15,.02,.04,.05,.07,.09,.1,.04,.02,.08,.04,.13,.05s.09,.01,.14,.01c.08,0,.16-.01,.23-.04s.12-.07,.17-.12c.04-.05,.08-.11,.1-.17,.02-.07,.04-.13,.04-.21v-.12h-.07Z"/>
              <path class="cls-3" d="M116.5,35.42c0-.07,0-.13-.01-.19h.23s0,.1,.01,.15c0,.05,0,.1,0,.13h0c.05-.1,.12-.17,.21-.24,.09-.06,.2-.09,.32-.09,.03,0,.06,0,.08,0,.02,0,.05,0,.07,.01l-.03,.23s-.04,0-.07-.01c-.03,0-.07,0-.1,0-.06,0-.13,.01-.18,.04-.06,.02-.11,.06-.15,.11-.04,.05-.08,.11-.1,.19-.03,.08-.04,.17-.04,.28v.85h-.24v-1.29s0-.1,0-.17h0Z"/>
              <path class="cls-3" d="M118.97,35.61c-.04-.06-.1-.12-.17-.16-.08-.04-.16-.06-.25-.06-.1,0-.18,.02-.26,.05s-.14,.08-.2,.14c-.06,.06-.1,.13-.13,.21s-.04,.17-.04,.26,.01,.18,.04,.26c.03,.08,.07,.15,.13,.21s.12,.11,.2,.14,.16,.05,.26,.05c.1,0,.19-.02,.27-.06,.07-.04,.13-.09,.18-.16l.18,.13c-.07,.09-.16,.16-.26,.21s-.22,.08-.37,.08c-.13,0-.25-.02-.37-.07-.11-.04-.2-.1-.28-.18s-.13-.17-.18-.28c-.04-.1-.06-.22-.06-.35s.02-.24,.06-.35c.04-.1,.1-.2,.18-.28,.08-.08,.17-.14,.28-.18s.23-.07,.37-.07c.11,0,.22,.02,.34,.07,.11,.05,.21,.12,.28,.21l-.19,.13h0Z"/>
              <path class="cls-3" d="M119.8,35.5c.04-.1,.12-.17,.22-.23,.1-.06,.22-.08,.33-.08,.21,0,.37,.06,.47,.19s.16,.29,.16,.49v1.01h-.24v-.92c0-.09,0-.17-.02-.24-.01-.07-.04-.13-.07-.18s-.08-.09-.14-.12c-.06-.03-.13-.04-.22-.04-.06,0-.13,.01-.19,.04-.06,.03-.11,.07-.16,.12s-.08,.12-.11,.2c-.03,.08-.04,.18-.04,.29v.85h-.24v-2.67h.24v1.29h0Z"/>
              <path class="cls-3" d="M124.61,36.48c-.04,.06-.09,.12-.15,.18-.06,.06-.13,.11-.21,.15-.08,.04-.17,.08-.26,.1-.1,.02-.2,.04-.31,.04-.19,0-.36-.03-.52-.1s-.3-.16-.41-.28c-.12-.12-.21-.25-.27-.42-.07-.16-.1-.34-.1-.53s.03-.37,.1-.53,.16-.3,.28-.42,.25-.21,.41-.28,.33-.1,.52-.1c.09,0,.18,0,.27,.03,.09,.02,.17,.04,.25,.08,.08,.04,.15,.08,.21,.13,.06,.05,.12,.1,.16,.16l-.21,.16s-.06-.08-.1-.12c-.04-.04-.1-.07-.15-.1-.06-.03-.12-.06-.19-.07-.07-.02-.14-.03-.22-.03-.16,0-.31,.03-.44,.09-.13,.06-.24,.14-.33,.24-.09,.1-.16,.22-.21,.35s-.07,.27-.07,.42,.02,.28,.07,.42c.05,.13,.12,.25,.21,.35s.2,.18,.33,.24c.13,.06,.27,.09,.43,.09,.14,0,.28-.03,.41-.09,.13-.06,.24-.15,.33-.28l.2,.13h0Z"/>
              <path class="cls-3" d="M126.54,36.01v.05s0,.04,0,.06h-1.37c0,.08,.02,.16,.05,.23,.03,.07,.07,.14,.13,.19,.05,.05,.12,.1,.19,.13,.07,.03,.15,.05,.24,.05,.13,0,.23-.03,.32-.09s.16-.13,.21-.2l.18,.14c-.1,.13-.21,.22-.33,.27-.12,.05-.25,.08-.38,.08-.12,0-.24-.02-.34-.07s-.19-.1-.27-.18-.13-.17-.18-.28-.07-.22-.07-.35,.02-.24,.06-.35c.04-.1,.1-.2,.18-.28,.07-.08,.16-.14,.27-.18s.21-.07,.33-.07c.13,0,.25,.02,.34,.07s.18,.1,.25,.18,.12,.16,.15,.26,.05,.21,.05,.32h0Zm-.25-.07c0-.16-.06-.28-.15-.39-.09-.1-.22-.15-.4-.15-.08,0-.16,.01-.22,.04-.07,.03-.13,.07-.18,.12s-.09,.11-.12,.17c-.03,.07-.05,.13-.05,.2h1.13Z"/>
              <path class="cls-3" d="M127.27,35.24s0,.1,.01,.15c0,.05,0,.1,0,.13h0c.05-.1,.12-.17,.23-.24,.1-.06,.22-.09,.34-.09,.21,0,.37,.06,.47,.19s.16,.29,.16,.49v1.01h-.24v-.92c0-.09,0-.17-.02-.24s-.04-.13-.07-.18-.08-.09-.14-.12c-.06-.03-.13-.04-.22-.04-.06,0-.13,.01-.19,.04-.06,.03-.11,.07-.16,.12s-.08,.12-.11,.2c-.03,.08-.04,.18-.04,.29v.85h-.24v-1.29s0-.1,0-.17c0-.07,0-.13-.01-.19h.23Z"/>
              <path class="cls-3" d="M129.86,35.44h-.47v.97c0,.06,0,.11,.02,.15,.01,.04,.03,.07,.05,.09,.02,.02,.05,.04,.08,.04,.03,0,.06,.01,.1,.01,.03,0,.07,0,.1-.01,.04,0,.07-.02,.1-.04v.21s-.07,.03-.12,.04c-.04,0-.1,.01-.15,.01-.04,0-.09,0-.14-.02s-.1-.03-.14-.07-.08-.08-.1-.13c-.03-.06-.04-.13-.04-.22v-1.03h-.34v-.2h.34v-.47h.24v.47h.47v.2h0Z"/>
              <path class="cls-3" d="M131.74,36.01v.05s0,.04,0,.06h-1.37c0,.08,.02,.16,.05,.23,.03,.07,.07,.14,.13,.19,.05,.05,.12,.1,.19,.13,.07,.03,.15,.05,.24,.05,.13,0,.23-.03,.32-.09s.16-.13,.21-.2l.18,.14c-.1,.13-.21,.22-.33,.27-.12,.05-.25,.08-.38,.08-.12,0-.24-.02-.34-.07s-.19-.1-.27-.18-.13-.17-.18-.28c-.04-.1-.07-.22-.07-.35s.02-.24,.06-.35c.04-.1,.1-.2,.18-.28,.07-.08,.16-.14,.27-.18s.21-.07,.33-.07c.13,0,.25,.02,.34,.07,.1,.04,.18,.1,.25,.18s.12,.16,.15,.26,.05,.21,.05,.32h0Zm-.25-.07c0-.16-.06-.28-.15-.39-.09-.1-.22-.15-.4-.15-.08,0-.16,.01-.22,.04-.07,.03-.13,.07-.18,.12-.05,.05-.09,.11-.12,.17s-.05,.13-.05,.2h1.13Z"/>
              <path class="cls-3" d="M132.25,35.42c0-.07,0-.13-.01-.19h.23s0,.1,.01,.15c0,.05,0,.1,0,.13h0c.05-.1,.12-.17,.21-.24,.09-.06,.2-.09,.32-.09,.03,0,.06,0,.08,0,.02,0,.05,0,.07,.01l-.03,.23s-.04,0-.07-.01c-.03,0-.07,0-.1,0-.06,0-.13,.01-.18,.04-.06,.02-.11,.06-.15,.11-.04,.05-.08,.11-.1,.19-.03,.08-.04,.17-.04,.28v.85h-.24v-1.29s0-.1,0-.17h0Z"/>
              <path class="cls-3" d="M133.57,37.38h-.2l.24-.83h.25l-.29,.83h0Z"/>
              <path class="cls-3" d="M136.15,36.89h-.25v-2.28h-.84v-.23h1.93v.23h-.84v2.28h0Z"/>
              <path class="cls-3" d="M137.6,35.5c.04-.1,.12-.17,.22-.23,.1-.06,.22-.08,.33-.08,.21,0,.37,.06,.47,.19s.16,.29,.16,.49v1.01h-.24v-.92c0-.09,0-.17-.02-.24-.01-.07-.04-.13-.07-.18s-.08-.09-.14-.12c-.06-.03-.13-.04-.22-.04-.06,0-.13,.01-.19,.04s-.11,.07-.16,.12c-.05,.05-.08,.12-.11,.2-.03,.08-.04,.18-.04,.29v.85h-.24v-2.67h.24v1.29h0Z"/>
              <path class="cls-3" d="M140.92,36.01v.05s0,.04,0,.06h-1.37c0,.08,.02,.16,.05,.23,.03,.07,.07,.14,.13,.19,.05,.05,.12,.1,.19,.13,.07,.03,.15,.05,.24,.05,.13,0,.23-.03,.32-.09s.16-.13,.21-.2l.18,.14c-.1,.13-.21,.22-.33,.27-.12,.05-.25,.08-.38,.08-.12,0-.24-.02-.34-.07s-.19-.1-.27-.18-.13-.17-.18-.28c-.04-.1-.07-.22-.07-.35s.02-.24,.06-.35c.04-.1,.1-.2,.18-.28,.07-.08,.16-.14,.27-.18s.21-.07,.33-.07c.13,0,.25,.02,.34,.07,.1,.04,.18,.1,.25,.18s.12,.16,.15,.26,.05,.21,.05,.32h0Zm-.25-.07c0-.16-.06-.28-.15-.39-.09-.1-.22-.15-.4-.15-.08,0-.16,.01-.22,.04-.07,.03-.13,.07-.18,.12-.05,.05-.09,.11-.12,.17s-.05,.13-.05,.2h1.13Z"/>
              <path class="cls-3" d="M143.07,36.06c0,.13-.02,.24-.07,.35-.04,.1-.1,.2-.18,.28-.08,.08-.17,.14-.28,.18-.11,.04-.23,.07-.36,.07s-.25-.02-.35-.07c-.11-.04-.2-.1-.28-.18s-.14-.17-.18-.28-.07-.22-.07-.35,.02-.24,.07-.35c.04-.1,.1-.2,.18-.28,.08-.08,.17-.14,.28-.18,.11-.04,.23-.07,.35-.07s.25,.02,.36,.07,.2,.1,.28,.18,.14,.17,.18,.28,.07,.22,.07,.35Zm-.25,0c0-.09-.01-.18-.04-.26-.03-.08-.07-.15-.13-.21s-.12-.11-.2-.14c-.08-.04-.16-.05-.26-.05s-.18,.02-.26,.05-.14,.08-.2,.14c-.05,.06-.1,.13-.13,.21-.03,.08-.04,.17-.04,.26s.01,.18,.04,.26c.03,.08,.07,.15,.13,.21s.12,.11,.2,.14c.08,.03,.16,.05,.26,.05s.18-.02,.26-.05,.14-.08,.2-.14c.05-.06,.1-.13,.13-.21,.03-.08,.04-.17,.04-.26Z"/>
              <path class="cls-3" d="M143.59,35.42c0-.07,0-.13-.01-.19h.23s0,.1,.01,.15c0,.05,0,.1,0,.13h0c.05-.1,.12-.17,.21-.24,.09-.06,.2-.09,.32-.09,.03,0,.06,0,.08,0,.02,0,.05,0,.07,.01l-.03,.23s-.04,0-.07-.01c-.03,0-.07,0-.1,0-.06,0-.13,.01-.18,.04-.06,.02-.11,.06-.15,.11-.04,.05-.08,.11-.1,.19-.03,.08-.04,.17-.04,.28v.85h-.24v-1.29s0-.1,0-.17h0Z"/>
              <path class="cls-3" d="M146.37,36.01v.05s0,.04,0,.06h-1.37c0,.08,.02,.16,.05,.23,.03,.07,.07,.14,.13,.19,.05,.05,.12,.1,.19,.13,.07,.03,.15,.05,.24,.05,.13,0,.23-.03,.32-.09s.16-.13,.21-.2l.18,.14c-.1,.13-.21,.22-.33,.27-.12,.05-.25,.08-.38,.08-.12,0-.24-.02-.34-.07s-.19-.1-.27-.18-.13-.17-.18-.28c-.04-.1-.07-.22-.07-.35s.02-.24,.06-.35c.04-.1,.1-.2,.18-.28,.07-.08,.16-.14,.27-.18s.21-.07,.33-.07c.13,0,.25,.02,.34,.07,.1,.04,.18,.1,.25,.18s.12,.16,.15,.26,.05,.21,.05,.32h0Zm-.25-.07c0-.16-.06-.28-.15-.39-.09-.1-.22-.15-.4-.15-.08,0-.16,.01-.22,.04-.07,.03-.13,.07-.18,.12-.05,.05-.09,.11-.12,.17s-.05,.13-.05,.2h1.13Z"/>
              <path class="cls-3" d="M147.63,35.44h-.47v.97c0,.06,0,.11,.02,.15,.01,.04,.03,.07,.05,.09,.02,.02,.05,.04,.08,.04,.03,0,.06,.01,.1,.01,.03,0,.07,0,.1-.01,.04,0,.07-.02,.1-.04v.21s-.07,.03-.12,.04c-.04,0-.1,.01-.15,.01-.04,0-.09,0-.14-.02s-.1-.03-.14-.07-.08-.08-.1-.13c-.03-.06-.04-.13-.04-.22v-1.03h-.34v-.2h.34v-.47h.24v.47h.47v.2h0Z"/>
              <path class="cls-3" d="M148.3,34.6c0,.05-.02,.09-.05,.12s-.07,.05-.12,.05-.08-.01-.12-.05-.05-.07-.05-.12,.02-.09,.05-.12,.07-.05,.12-.05,.08,.01,.12,.05,.05,.07,.05,.12Zm-.05,2.29h-.24v-1.66h.24v1.66Z"/>
              <path class="cls-3" d="M150.08,35.61c-.04-.06-.1-.12-.17-.16-.08-.04-.16-.06-.25-.06-.1,0-.18,.02-.26,.05s-.14,.08-.2,.14c-.06,.06-.1,.13-.13,.21-.03,.08-.04,.17-.04,.26s.01,.18,.04,.26c.03,.08,.07,.15,.13,.21s.12,.11,.2,.14c.08,.03,.16,.05,.26,.05,.1,0,.19-.02,.27-.06,.07-.04,.13-.09,.18-.16l.18,.13c-.07,.09-.16,.16-.26,.21s-.22,.08-.37,.08c-.13,0-.25-.02-.37-.07-.11-.04-.2-.1-.28-.18s-.13-.17-.18-.28c-.04-.1-.06-.22-.06-.35s.02-.24,.06-.35c.04-.1,.1-.2,.18-.28,.08-.08,.17-.14,.28-.18,.11-.04,.23-.07,.37-.07,.11,0,.22,.02,.34,.07,.11,.05,.21,.12,.28,.21l-.19,.13h0Z"/>
              <path class="cls-3" d="M151.7,35.82c0-.14-.04-.25-.11-.32-.07-.07-.19-.1-.33-.1-.1,0-.19,.02-.28,.05s-.16,.08-.22,.14l-.13-.16c.07-.07,.16-.13,.27-.17s.24-.07,.38-.07c.09,0,.17,.01,.25,.04s.15,.06,.21,.11c.06,.05,.1,.11,.14,.19,.03,.07,.05,.16,.05,.27v.72c0,.06,0,.13,0,.2s.01,.13,.02,.17h-.22s-.01-.08-.02-.13,0-.09,0-.14h0c-.07,.11-.16,.19-.26,.24s-.21,.07-.34,.07c-.06,0-.13,0-.2-.03-.07-.02-.13-.05-.18-.09-.06-.04-.1-.09-.14-.16s-.05-.14-.05-.23c0-.13,.03-.23,.1-.3,.07-.07,.15-.13,.26-.17,.11-.04,.23-.06,.37-.07s.28-.01,.44-.01v-.05h0Zm-.07,.24c-.1,0-.2,0-.3,.01-.1,0-.19,.02-.27,.05s-.15,.06-.2,.11c-.05,.05-.08,.11-.08,.19,0,.06,.01,.11,.03,.15,.02,.04,.05,.07,.09,.1,.04,.02,.08,.04,.13,.05s.09,.01,.14,.01c.08,0,.16-.01,.23-.04s.12-.07,.17-.12,.08-.11,.1-.17,.04-.13,.04-.21v-.12h-.07Z"/>
              <path class="cls-3" d="M152.79,36.89h-.24v-2.67h.24v2.67Z"/>
              <path class="cls-3" d="M154.33,36.38c.02,.1,.06,.18,.13,.25s.16,.1,.28,.1c.09,0,.16-.01,.22-.05s.1-.07,.13-.13,.06-.12,.07-.19c.01-.07,.02-.14,.02-.22v-1.76h.25v1.78c0,.08,0,.17-.03,.26-.02,.09-.05,.18-.1,.25s-.12,.14-.21,.19c-.09,.05-.2,.07-.34,.07-.18,0-.33-.05-.45-.14s-.19-.22-.22-.37l.24-.06h0Z"/>
              <path class="cls-3" d="M157.71,36.06c0,.13-.02,.24-.07,.35-.04,.1-.1,.2-.18,.28-.08,.08-.17,.14-.28,.18-.11,.04-.23,.07-.36,.07s-.25-.02-.35-.07c-.11-.04-.2-.1-.28-.18s-.14-.17-.18-.28-.07-.22-.07-.35,.02-.24,.07-.35c.04-.1,.1-.2,.18-.28,.08-.08,.17-.14,.28-.18,.11-.04,.23-.07,.35-.07s.25,.02,.36,.07,.2,.1,.28,.18,.14,.17,.18,.28,.07,.22,.07,.35Zm-.25,0c0-.09-.01-.18-.04-.26-.03-.08-.07-.15-.13-.21s-.12-.11-.2-.14c-.08-.04-.16-.05-.26-.05s-.18,.02-.26,.05-.14,.08-.2,.14c-.05,.06-.1,.13-.13,.21-.03,.08-.04,.17-.04,.26s.01,.18,.04,.26c.03,.08,.07,.15,.13,.21s.12,.11,.2,.14c.08,.03,.16,.05,.26,.05s.18-.02,.26-.05,.14-.08,.2-.14c.05-.06,.1-.13,.13-.21,.03-.08,.04-.17,.04-.26Z"/>
              <path class="cls-3" d="M158.52,34.6c0,.05-.02,.09-.05,.12s-.07,.05-.12,.05-.08-.01-.12-.05-.05-.07-.05-.12,.02-.09,.05-.12,.07-.05,.12-.05,.08,.01,.12,.05,.05,.07,.05,.12Zm-.05,2.29h-.24v-1.66h.24v1.66Z"/>
              <path class="cls-3" d="M159.32,35.24s0,.1,.01,.15c0,.05,0,.1,0,.13h0c.05-.1,.12-.17,.23-.24,.1-.06,.22-.09,.34-.09,.21,0,.37,.06,.47,.19s.16,.29,.16,.49v1.01h-.24v-.92c0-.09,0-.17-.02-.24s-.04-.13-.07-.18-.08-.09-.14-.12c-.06-.03-.13-.04-.22-.04-.06,0-.13,.01-.19,.04s-.11,.07-.16,.12c-.05,.05-.08,.12-.11,.2-.03,.08-.04,.18-.04,.29v.85h-.24v-1.29s0-.1,0-.17c0-.07,0-.13-.01-.19h.23Z"/>
              <path class="cls-3" d="M161.91,35.44h-.47v.97c0,.06,0,.11,.02,.15,.01,.04,.03,.07,.05,.09,.02,.02,.05,.04,.08,.04,.03,0,.06,.01,.1,.01,.03,0,.07,0,.1-.01,.04,0,.07-.02,.1-.04v.21s-.07,.03-.12,.04c-.04,0-.1,.01-.15,.01-.04,0-.09,0-.14-.02s-.1-.03-.14-.07-.08-.08-.1-.13c-.03-.06-.04-.13-.04-.22v-1.03h-.34v-.2h.34v-.47h.24v.47h.47v.2h0Z"/>
              <path class="cls-3" d="M163.43,36.89h-.25v-2.5h.74c.12,0,.24,.01,.34,.04s.19,.06,.27,.11c.08,.05,.13,.12,.18,.21,.04,.08,.06,.19,.06,.31,0,.09-.02,.18-.05,.25s-.08,.14-.13,.2-.12,.1-.2,.13-.16,.05-.25,.06l.73,1.19h-.31l-.69-1.17h-.42v1.17h0Zm0-1.39h.44c.21,0,.36-.04,.47-.11s.17-.19,.17-.34c0-.08-.01-.15-.04-.21-.03-.06-.07-.1-.13-.14-.05-.04-.12-.06-.2-.08-.08-.02-.16-.02-.26-.02h-.45v.89h0Z"/>
              <path class="cls-3" d="M166.79,36.01v.05s0,.04,0,.06h-1.37c0,.08,.02,.16,.05,.23,.03,.07,.07,.14,.13,.19,.05,.05,.12,.1,.19,.13,.07,.03,.15,.05,.24,.05,.13,0,.23-.03,.32-.09s.16-.13,.21-.2l.18,.14c-.1,.13-.21,.22-.33,.27-.12,.05-.25,.08-.38,.08-.12,0-.24-.02-.34-.07s-.19-.1-.27-.18-.13-.17-.18-.28c-.04-.1-.07-.22-.07-.35s.02-.24,.06-.35c.04-.1,.1-.2,.18-.28,.07-.08,.16-.14,.27-.18s.21-.07,.33-.07c.13,0,.25,.02,.34,.07,.1,.04,.18,.1,.25,.18s.12,.16,.15,.26,.05,.21,.05,.32h0Zm-.25-.07c0-.16-.06-.28-.15-.39-.09-.1-.22-.15-.4-.15-.08,0-.16,.01-.22,.04-.07,.03-.13,.07-.18,.12-.05,.05-.09,.11-.12,.17s-.05,.13-.05,.2h1.13Z"/>
              <path class="cls-3" d="M168.19,35.63c-.04-.07-.09-.13-.16-.17-.07-.04-.15-.07-.25-.07-.04,0-.08,0-.13,.01-.04,0-.08,.02-.11,.04-.03,.02-.06,.05-.08,.08-.02,.03-.03,.07-.03,.12,0,.08,.03,.14,.1,.18s.16,.07,.3,.1c.19,.04,.34,.1,.43,.17,.09,.08,.14,.18,.14,.31,0,.1-.02,.17-.05,.24s-.08,.12-.14,.16-.13,.07-.2,.09c-.07,.02-.15,.03-.22,.03-.13,0-.25-.03-.37-.08s-.22-.13-.29-.25l.19-.14c.04,.07,.1,.13,.19,.18,.08,.05,.17,.07,.27,.07,.05,0,.1,0,.15-.01,.05,0,.09-.03,.12-.05s.06-.05,.08-.09,.03-.08,.03-.13c0-.09-.04-.15-.13-.2s-.2-.08-.36-.12c-.05-.01-.1-.03-.16-.04-.06-.02-.11-.04-.15-.08-.05-.03-.09-.08-.12-.13s-.04-.12-.04-.19c0-.08,.02-.16,.05-.22,.03-.06,.08-.11,.13-.15,.05-.04,.12-.07,.19-.09,.07-.02,.14-.03,.22-.03,.12,0,.23,.03,.34,.08,.11,.05,.19,.13,.25,.22l-.18,.14h0Z"/>
              <path class="cls-3" d="M170.38,36.01v.05s0,.04,0,.06h-1.37c0,.08,.02,.16,.05,.23,.03,.07,.07,.14,.13,.19,.05,.05,.12,.1,.19,.13,.07,.03,.15,.05,.24,.05,.13,0,.23-.03,.32-.09s.16-.13,.21-.2l.18,.14c-.1,.13-.21,.22-.33,.27-.12,.05-.25,.08-.38,.08-.12,0-.24-.02-.34-.07s-.19-.1-.27-.18-.13-.17-.18-.28-.07-.22-.07-.35,.02-.24,.06-.35c.04-.1,.1-.2,.18-.28,.07-.08,.16-.14,.27-.18,.1-.04,.21-.07,.33-.07,.13,0,.25,.02,.34,.07s.18,.1,.25,.18,.12,.16,.15,.26,.05,.21,.05,.32h0Zm-.25-.07c0-.16-.06-.28-.15-.39-.09-.1-.22-.15-.4-.15-.08,0-.16,.01-.22,.04-.07,.03-.13,.07-.18,.12s-.09,.11-.12,.17-.05,.13-.05,.2h1.13Z"/>
              <path class="cls-3" d="M171.94,35.82c0-.14-.04-.25-.11-.32-.07-.07-.19-.1-.33-.1-.1,0-.19,.02-.28,.05s-.16,.08-.22,.14l-.13-.16c.07-.07,.16-.13,.27-.17s.24-.07,.38-.07c.09,0,.17,.01,.25,.04s.15,.06,.21,.11c.06,.05,.1,.11,.14,.19,.03,.07,.05,.16,.05,.27v.72c0,.06,0,.13,0,.2s.01,.13,.02,.17h-.22s-.01-.08-.02-.13,0-.09,0-.14h0c-.07,.11-.16,.19-.26,.24-.1,.05-.21,.07-.34,.07-.06,0-.13,0-.2-.03-.07-.02-.13-.05-.18-.09-.06-.04-.1-.09-.14-.16s-.05-.14-.05-.23c0-.13,.03-.23,.1-.3,.07-.07,.15-.13,.26-.17,.11-.04,.23-.06,.37-.07s.28-.01,.44-.01v-.05h0Zm-.07,.24c-.1,0-.2,0-.3,.01-.1,0-.19,.02-.27,.05s-.15,.06-.2,.11c-.05,.05-.08,.11-.08,.19,0,.06,.01,.11,.03,.15,.02,.04,.05,.07,.09,.1,.04,.02,.08,.04,.13,.05s.09,.01,.14,.01c.08,0,.16-.01,.23-.04s.12-.07,.17-.12,.08-.11,.1-.17,.04-.13,.04-.21v-.12h-.07Z"/>
              <path class="cls-3" d="M172.78,35.42c0-.07,0-.13-.01-.19h.23s0,.1,.01,.15c0,.05,0,.1,0,.13h0c.05-.1,.12-.17,.21-.24,.09-.06,.2-.09,.32-.09,.03,0,.06,0,.08,0,.02,0,.05,0,.07,.01l-.03,.23s-.04,0-.07-.01c-.03,0-.07,0-.1,0-.06,0-.13,.01-.18,.04-.06,.02-.11,.06-.15,.11-.04,.05-.08,.11-.1,.19-.03,.08-.04,.17-.04,.28v.85h-.24v-1.29s0-.1,0-.17h0Z"/>
              <path class="cls-3" d="M175.25,35.61c-.04-.06-.1-.12-.17-.16-.08-.04-.16-.06-.25-.06-.1,0-.18,.02-.26,.05s-.14,.08-.2,.14c-.06,.06-.1,.13-.13,.21s-.04,.17-.04,.26,.01,.18,.04,.26c.03,.08,.07,.15,.13,.21,.05,.06,.12,.11,.2,.14s.16,.05,.26,.05c.1,0,.19-.02,.27-.06,.07-.04,.13-.09,.18-.16l.18,.13c-.07,.09-.16,.16-.26,.21s-.22,.08-.37,.08c-.13,0-.25-.02-.37-.07-.11-.04-.2-.1-.28-.18-.08-.08-.13-.17-.18-.28-.04-.1-.06-.22-.06-.35s.02-.24,.06-.35c.04-.1,.1-.2,.18-.28,.08-.08,.17-.14,.28-.18s.23-.07,.37-.07c.11,0,.22,.02,.34,.07,.11,.05,.21,.12,.28,.21l-.19,.13h0Z"/>
              <path class="cls-3" d="M176.08,35.5c.04-.1,.12-.17,.22-.23,.1-.06,.22-.08,.33-.08,.21,0,.37,.06,.47,.19,.1,.13,.16,.29,.16,.49v1.01h-.24v-.92c0-.09,0-.17-.02-.24-.01-.07-.04-.13-.07-.18s-.08-.09-.14-.12c-.06-.03-.13-.04-.22-.04-.06,0-.13,.01-.19,.04-.06,.03-.11,.07-.16,.12s-.08,.12-.11,.2c-.03,.08-.04,.18-.04,.29v.85h-.24v-2.67h.24v1.29h0Z"/>
              <path class="cls-3" d="M178.79,34.39h.71c.13,0,.24,.01,.35,.04s.19,.07,.27,.12c.07,.06,.13,.13,.17,.21s.06,.18,.06,.3-.02,.21-.06,.3c-.04,.08-.1,.15-.17,.21-.07,.06-.16,.1-.27,.13-.1,.03-.22,.04-.35,.04h-.45v1.16h-.25v-2.5h0Zm.25,1.12h.43c.2,0,.35-.04,.45-.12,.1-.08,.16-.19,.16-.34s-.05-.27-.16-.34c-.11-.07-.26-.11-.45-.11h-.43v.9h0Z"/>
              <path class="cls-3" d="M180.82,35.42c0-.07,0-.13-.01-.19h.23s0,.1,.01,.15c0,.05,0,.1,0,.13h0c.05-.1,.12-.17,.21-.24,.09-.06,.2-.09,.32-.09,.03,0,.06,0,.08,0,.02,0,.05,0,.07,.01l-.03,.23s-.04,0-.07-.01c-.03,0-.07,0-.1,0-.06,0-.13,.01-.18,.04-.06,.02-.11,.06-.15,.11-.04,.05-.08,.11-.1,.19-.03,.08-.04,.17-.04,.28v.85h-.24v-1.29s0-.1,0-.17h0Z"/>
              <path class="cls-3" d="M183.74,36.06c0,.13-.02,.24-.07,.35-.04,.1-.1,.2-.18,.28-.08,.08-.17,.14-.28,.18s-.23,.07-.36,.07-.25-.02-.35-.07-.2-.1-.28-.18-.14-.17-.18-.28-.07-.22-.07-.35,.02-.24,.07-.35c.04-.1,.1-.2,.18-.28,.08-.08,.17-.14,.28-.18s.23-.07,.35-.07,.25,.02,.36,.07c.11,.04,.2,.1,.28,.18s.14,.17,.18,.28,.07,.22,.07,.35Zm-.25,0c0-.09-.01-.18-.04-.26-.03-.08-.07-.15-.13-.21-.05-.06-.12-.11-.2-.14s-.16-.05-.26-.05-.18,.02-.26,.05-.14,.08-.2,.14c-.05,.06-.1,.13-.13,.21s-.04,.17-.04,.26,.01,.18,.04,.26c.03,.08,.07,.15,.13,.21,.05,.06,.12,.11,.2,.14s.16,.05,.26,.05,.18-.02,.26-.05,.14-.08,.2-.14c.05-.06,.1-.13,.13-.21s.04-.17,.04-.26Z"/>
              <path class="cls-3" d="M183.88,37.51s.05,.01,.07,.01,.05,0,.07,0c.05,0,.09,0,.12-.03s.05-.04,.07-.07,.03-.07,.03-.11c0-.04,0-.09,0-.14v-1.95h.24v1.98c0,.07,0,.13-.02,.19-.01,.06-.04,.12-.07,.17-.04,.05-.08,.09-.14,.12s-.14,.04-.23,.04c-.03,0-.06,0-.09,0-.04,0-.07,0-.1-.02l.04-.2h0Zm.68-2.92c0,.05-.02,.09-.05,.12s-.07,.05-.12,.05-.08-.01-.12-.05c-.04-.03-.05-.07-.05-.12s.02-.09,.05-.12,.07-.05,.12-.05,.08,.01,.12,.05c.04,.03,.05,.07,.05,.12Z"/>
              <path class="cls-3" d="M186.65,36.01v.05s0,.04,0,.06h-1.37c0,.08,.02,.16,.05,.23,.03,.07,.07,.14,.13,.19,.05,.05,.12,.1,.19,.13,.07,.03,.15,.05,.24,.05,.13,0,.23-.03,.32-.09s.16-.13,.21-.2l.18,.14c-.1,.13-.21,.22-.33,.27-.12,.05-.25,.08-.38,.08-.12,0-.24-.02-.34-.07s-.19-.1-.27-.18-.13-.17-.18-.28-.07-.22-.07-.35,.02-.24,.06-.35c.04-.1,.1-.2,.18-.28,.07-.08,.16-.14,.27-.18,.1-.04,.21-.07,.33-.07,.13,0,.25,.02,.34,.07s.18,.1,.25,.18,.12,.16,.15,.26,.05,.21,.05,.32h0Zm-.25-.07c0-.16-.06-.28-.15-.39-.09-.1-.22-.15-.4-.15-.08,0-.16,.01-.22,.04-.07,.03-.13,.07-.18,.12s-.09,.11-.12,.17-.05,.13-.05,.2h1.13Z"/>
              <path class="cls-3" d="M188.36,35.61c-.04-.06-.1-.12-.17-.16-.08-.04-.16-.06-.25-.06-.1,0-.18,.02-.26,.05s-.14,.08-.2,.14c-.06,.06-.1,.13-.13,.21s-.04,.17-.04,.26,.01,.18,.04,.26c.03,.08,.07,.15,.13,.21,.05,.06,.12,.11,.2,.14s.16,.05,.26,.05c.1,0,.19-.02,.27-.06,.07-.04,.13-.09,.18-.16l.18,.13c-.07,.09-.16,.16-.26,.21s-.22,.08-.37,.08c-.13,0-.25-.02-.37-.07-.11-.04-.2-.1-.28-.18-.08-.08-.13-.17-.18-.28-.04-.1-.06-.22-.06-.35s.02-.24,.06-.35c.04-.1,.1-.2,.18-.28,.08-.08,.17-.14,.28-.18s.23-.07,.37-.07c.11,0,.22,.02,.34,.07,.11,.05,.21,.12,.28,.21l-.19,.13h0Z"/>
              <path class="cls-3" d="M189.68,35.44h-.47v.97c0,.06,0,.11,.02,.15,.01,.04,.03,.07,.05,.09s.05,.04,.08,.04c.03,0,.06,.01,.1,.01,.03,0,.07,0,.1-.01,.04,0,.07-.02,.1-.04v.21s-.07,.03-.12,.04c-.04,0-.1,.01-.15,.01-.04,0-.09,0-.14-.02s-.1-.03-.14-.07c-.04-.03-.08-.08-.1-.13-.03-.06-.04-.13-.04-.22v-1.03h-.34v-.2h.34v-.47h.24v.47h.47v.2h0Z"/>
            </g>
            <rect class="cls-1" x="90.92" y="14.69" width="98.76" height="23.05"/>
          </g>
        </g>
      </g>
    </g>
  </g>
</svg>